<svg width="191" height="30" viewBox="0 0 191 30" fill="none" xmlns="http://www.w3.org/2000/svg">
<path d="M16.777 8.37C16.777 9.60733 16.487 10.7383 15.907 11.763C15.3463 12.7683 14.486 13.5803 13.326 14.199C12.1853 14.7983 10.7837 15.098 9.121 15.098H6.308V22H0.624V1.555H9.121C10.7643 1.555 12.1563 1.845 13.297 2.425C14.457 3.005 15.327 3.80733 15.907 4.832C16.487 5.85667 16.777 7.036 16.777 8.37ZM8.57 10.574C10.1747 10.574 10.977 9.83933 10.977 8.37C10.977 6.88133 10.1747 6.137 8.57 6.137H6.308V10.574H8.57ZM24.7445 0.54V22H19.0605V0.54H24.7445ZM27.0534 13.851C27.0534 12.169 27.3531 10.6997 27.9524 9.443C28.5711 8.18633 29.4024 7.21967 30.4464 6.543C31.5098 5.86633 32.6891 5.528 33.9844 5.528C35.1058 5.528 36.0724 5.75033 36.8844 6.195C37.6964 6.63967 38.3248 7.239 38.7694 7.993V5.731H44.4534V22H38.7694V19.738C38.3248 20.492 37.6868 21.0913 36.8554 21.536C36.0434 21.9807 35.0864 22.203 33.9844 22.203C32.6891 22.203 31.5098 21.8647 30.4464 21.188C29.4024 20.5113 28.5711 19.5447 27.9524 18.288C27.3531 17.012 27.0534 15.533 27.0534 13.851ZM38.7694 13.851C38.7694 12.807 38.4794 11.9853 37.8994 11.386C37.3388 10.7867 36.6428 10.487 35.8114 10.487C34.9608 10.487 34.2551 10.7867 33.6944 11.386C33.1338 11.966 32.8534 12.7877 32.8534 13.851C32.8534 14.895 33.1338 15.7263 33.6944 16.345C34.2551 16.9443 34.9608 17.244 35.8114 17.244C36.6428 17.244 37.3388 16.9443 37.8994 16.345C38.4794 15.7457 38.7694 14.9143 38.7694 13.851ZM65.2084 5.731L54.8844 29.743H48.7074L52.5934 21.304L45.9234 5.731H52.2454L55.6674 14.953L58.9734 5.731H65.2084ZM82.2393 13.677C82.2393 14.1217 82.2103 14.5663 82.1523 15.011H71.3933C71.4513 15.9003 71.693 16.5673 72.1183 17.012C72.563 17.4373 73.1236 17.65 73.8003 17.65C74.7476 17.65 75.4243 17.2247 75.8303 16.374H81.8913C81.64 17.4953 81.147 18.5007 80.4123 19.39C79.697 20.26 78.7883 20.9463 77.6863 21.449C76.5843 21.9517 75.3663 22.203 74.0323 22.203C72.4276 22.203 70.997 21.8647 69.7403 21.188C68.503 20.5113 67.5266 19.5447 66.8113 18.288C66.1153 17.0313 65.7673 15.5523 65.7673 13.851C65.7673 12.1497 66.1153 10.6803 66.8113 9.443C67.5073 8.18633 68.474 7.21967 69.7113 6.543C70.968 5.86633 72.4083 5.528 74.0323 5.528C75.637 5.528 77.058 5.85667 78.2953 6.514C79.5326 7.17133 80.4993 8.11867 81.1953 9.356C81.8913 10.574 82.2393 12.0143 82.2393 13.677ZM76.4393 12.256C76.4393 11.56 76.2073 11.0187 75.7433 10.632C75.2793 10.226 74.6993 10.023 74.0033 10.023C73.3073 10.023 72.737 10.2163 72.2923 10.603C71.8476 10.9703 71.5576 11.5213 71.4223 12.256H76.4393ZM90.2494 8.602C90.8874 7.674 91.6607 6.93933 92.5694 6.398C93.4781 5.85667 94.4544 5.586 95.4984 5.586V11.647H93.9034C92.6661 11.647 91.7477 11.8887 91.1484 12.372C90.5491 12.8553 90.2494 13.6963 90.2494 14.895V22H84.5654V5.731H90.2494V8.602ZM121.403 1.555V22H115.719V10.719L111.862 22H107.106L103.22 10.632V22H97.5361V1.555H104.409L109.542 14.837L114.559 1.555H121.403ZM123.711 13.851C123.711 12.169 124.01 10.6997 124.61 9.443C125.228 8.18633 126.06 7.21967 127.104 6.543C128.167 5.86633 129.346 5.528 130.642 5.528C131.763 5.528 132.73 5.75033 133.542 6.195C134.354 6.63967 134.982 7.239 135.427 7.993V5.731H141.111V22H135.427V19.738C134.982 20.492 134.344 21.0913 133.513 21.536C132.701 21.9807 131.744 22.203 130.642 22.203C129.346 22.203 128.167 21.8647 127.104 21.188C126.06 20.5113 125.228 19.5447 124.61 18.288C124.01 17.012 123.711 15.533 123.711 13.851ZM135.427 13.851C135.427 12.807 135.137 11.9853 134.557 11.386C133.996 10.7867 133.3 10.487 132.469 10.487C131.618 10.487 130.912 10.7867 130.352 11.386C129.791 11.966 129.511 12.7877 129.511 13.851C129.511 14.895 129.791 15.7263 130.352 16.345C130.912 16.9443 131.618 17.244 132.469 17.244C133.3 17.244 133.996 16.9443 134.557 16.345C135.137 15.7457 135.427 14.9143 135.427 13.851ZM153.949 17.157V22H151.484C147.327 22 145.249 19.941 145.249 15.823V10.458H143.248V5.731H145.249V1.787H150.962V5.731H153.92V10.458H150.962V15.91C150.962 16.3547 151.058 16.6737 151.252 16.867C151.464 17.0603 151.812 17.157 152.296 17.157H153.949ZM155.628 13.851C155.628 12.169 155.976 10.6997 156.672 9.443C157.368 8.18633 158.334 7.21967 159.572 6.543C160.828 5.86633 162.259 5.528 163.864 5.528C165.932 5.528 167.672 6.09833 169.084 7.239C170.495 8.36033 171.404 9.936 171.81 11.966H165.778C165.43 10.9027 164.753 10.371 163.748 10.371C163.032 10.371 162.462 10.6707 162.037 11.27C161.631 11.85 161.428 12.7103 161.428 13.851C161.428 14.9917 161.631 15.8617 162.037 16.461C162.462 17.0603 163.032 17.36 163.748 17.36C164.772 17.36 165.449 16.8283 165.778 15.765H171.81C171.404 17.7757 170.495 19.3513 169.084 20.492C167.672 21.6327 165.932 22.203 163.864 22.203C162.259 22.203 160.828 21.8647 159.572 21.188C158.334 20.5113 157.368 19.5447 156.672 18.288C155.976 17.0313 155.628 15.5523 155.628 13.851ZM184.872 5.586C186.728 5.586 188.197 6.21433 189.28 7.471C190.382 8.70833 190.933 10.3903 190.933 12.517V22H185.249V13.271C185.249 12.343 185.007 11.618 184.524 11.096C184.041 10.5547 183.393 10.284 182.581 10.284C181.73 10.284 181.063 10.5547 180.58 11.096C180.097 11.618 179.855 12.343 179.855 13.271V22H174.171V0.54H179.855V8.051C180.358 7.31633 181.034 6.72667 181.885 6.282C182.755 5.818 183.751 5.586 184.872 5.586Z" fill="white"/>
</svg>
